inDegrees=yes
name=ik_S53_A05_T02
DataType=double
version=3
OpenSimVersion=4.3-2021-08-27-4bc7ad9
endheader
time	pelvis_tilt	pelvis_list	pelvis_rotation	pelvis_tx	pelvis_ty	pelvis_tz	hip_flexion_r	hip_adduction_r	hip_rotation_r	knee_angle_r	knee_angle_r_beta	ankle_angle_r	subtalar_angle_r	mtp_angle_r	hip_flexion_l	hip_adduction_l	hip_rotation_l	knee_angle_l	knee_angle_l_beta	ankle_angle_l	subtalar_angle_l	mtp_angle_l	lumbar_extension	lumbar_bending	lumbar_rotation	arm_flex_r	arm_add_r	arm_rot_r	elbow_flex_r	pro_sup_r	wrist_flex_r	wrist_dev_r	arm_flex_l	arm_add_l	arm_rot_l	elbow_flex_l	pro_sup_l	wrist_flex_l	wrist_dev_l
32.69999999999943	-2.723085530727994	-3.699069758288426	33.82765467659254	0	0.9399999999999999	0	33.6814027169795	-9.758905638595754	-9.247861678949029	37.19914394610109	0.64924754078278	0	0	0	33.6814027169795	-9.758905638595754	-9.247861678949029	37.19914394610109	0.64924754078278	0	0	0	-2.785362618112472	-1.925211744447981	-0.5665044150145385	70.96461861681547	13.46308429057938	6.164921091308845	22.662287127185	112.9962996518104	0	0	36.31554280888974	-10.40579351279627	-3.830815053425236	22.05447114719988	125.24303220912	0	0
32.71666666666609	-2.710273496944258	-3.663861949365677	33.47762354379547	0	0.9399999999999999	0	33.74821661587954	-9.762286122870176	-9.255642150581247	37.29442222600762	0.6509104604727858	0	0	0	33.74821661587954	-9.762286122870176	-9.255642150581247	37.29442222600762	0.6509104604727858	0	0	0	-2.75632975310333	-1.912190306734434	-0.4526252034350006	70.38119424498933	11.79404611747914	5.7931339240883	23.18707107050309	113.1574339497212	0	0	36.26364064617049	-10.42731429260746	-4.085559742448682	22.06127225197077	125.3022264210538	0	0
32.73333333333276	-2.694640109357484	-3.648433411412811	33.40312911232838	0	0.9399999999999999	0	33.75794678915813	-9.762682165198365	-9.256724301034712	37.30575370668588	0.6511082321197476	0	0	0	33.75794678915813	-9.762682165198365	-9.256724301034712	37.30575370668588	0.6511082321197476	0	0	0	-2.737699554587116	-1.904712426401994	-0.4886707384572128	70.34953199604377	11.8814946869869	5.848352516227271	23.15703022618128	113.1363558171141	0	0	36.23493853776993	-10.4303075281694	-4.150664208488377	22.02893145802138	125.3070108943876	0	0
32.74999999999942	-2.689880034112398	-3.624709089247534	33.27345757428191	0	0.9399999999999999	0	33.76143425592915	-9.762933959459582	-9.257229998710315	37.30962678494772	0.6511758300876042	0	0	0	33.76143425592915	-9.762933959459582	-9.257229998710315	37.30962678494772	0.6511758300876042	0	0	0	-2.72078364981628	-1.888063706492048	-0.4817811078186407	70.46302199212958	11.49708614883614	5.712120041373479	22.6754271354479	113.2007520098364	0	0	36.17873533894612	-10.44913771238944	-4.221399262316118	22.03610439453679	125.2689573355282	0	0
32.76666666666609	-2.681144682257708	-3.607421224207457	33.1397930217464	0	0.9399999999999999	0	33.76511999060766	-9.763199954994127	-9.257764364395586	37.31371917378517	0.6512472557470894	0	0	0	33.76511999060766	-9.763199954994127	-9.257764364395586	37.31371917378517	0.6512472557470894	0	0	0	-2.704366323826818	-1.878329179955065	-0.4818414659094161	70.59249995897507	11.14679141052557	5.555573893026517	22.19493224521934	113.1599114388027	0	0	36.12291764970661	-10.47494005629994	-4.33539529488542	22.05262478987116	125.312471411148	0	0
32.78333333333276	-2.673756315028901	-3.580533569266324	33.06791317486059	0	0.9399999999999999	0	33.77765521072546	-9.763834970673896	-9.259292286142163	37.32808603957157	0.6514980048582543	0	0	0	33.77765521072546	-9.763834970673896	-9.259292286142163	37.32808603957157	0.6514980048582543	0	0	0	-2.68646272764519	-1.856888341636832	-0.5146693423131229	70.55665700076021	11.2290176131318	5.619305414784917	22.1783186480064	113.1674787329819	0	0	36.09612501278318	-10.47263633407446	-4.362536171459036	22.0293150250466	125.2989711923026	0	0
32.79999999999942	-2.66589220898767	-3.535739019750157	32.91298645742009	0	0.9399999999999999	0	33.78011922149602	-9.764012095435181	-9.259648678672756	37.33082708271172	0.6515458450859891	0	0	0	33.78011922149602	-9.764012095435181	-9.259648678672756	37.33082708271172	0.6515458450859891	0	0	0	-2.656781803237575	-1.821844833986877	-0.5343892679124181	70.62182508338024	10.91275775801234	5.54939426996367	21.74931424049983	112.9782034602685	0	0	36.01182514578883	-10.49066062393845	-4.464188161869777	22.02132062386034	125.2482874000714	0	0
32.81666666666609	-2.669200020849511	-3.531683335962346	32.85174615604276	0	0.9399999999999999	0	33.78313205822045	-9.764228809411156	-9.260084678263318	37.33417508205133	0.6516042786978199	0	0	0	33.78313205822045	-9.764228809411156	-9.260084678263318	37.33417508205133	0.6516042786978199	0	0	0	-2.654717861843683	-1.820950969676838	-0.4786916816100965	70.78877365984253	10.45428330555702	5.381053822683982	21.34016820551966	112.7239580693646	0	0	35.97268324528615	-10.47695304463639	-4.37917397012909	22.06151364516345	125.2531468878078	0	0
32.83333333333275	-2.678981922294257	-3.504850403870112	32.71218450019673	0	0.9399999999999999	0	33.78608154449365	-9.764440828379946	-9.260511370415784	37.33745307991997	0.651661490553501	0	0	0	33.78608154449365	-9.764440828379946	-9.260511370415784	37.33745307991997	0.651661490553501	0	0	0	-2.649442382027222	-1.791908563716443	-0.491867120922784	70.91691703301748	10.1303101231424	5.303587318394379	20.9778355222823	112.4931088680324	0	0	35.939666783394	-10.50823782370582	-4.434435651648735	22.04954333885758	125.2289593989831	0	0
32.84999999999942	-2.680658452640304	-3.471227853368412	32.5824972572771	0	0.9399999999999999	0	33.78873070730802	-9.764630956192773	-9.260894257323869	37.34040008545697	0.6517129255031961	0	0	0	33.78873070730802	-9.764630956192773	-9.260894257323869	37.34040008545697	0.6517129255031961	0	0	0	-2.633236989921206	-1.762247746365168	-0.4956440040090486	71.02435457996219	9.779704106435501	5.229967747372176	20.63358546105396	112.3307393268193	0	0	35.88789479160709	-10.51849803887832	-4.574267301240948	22.03409872667343	125.2948189016128	0	0
32.86666666666608	-2.703582993289878	-3.446036533942523	31.79272742790134	0	0.9399999999999999	0	33.87320436838735	-9.768820098110265	-9.270623974624431	37.46128570727389	0.653822777622222	0	0	0	33.87320436838735	-9.768820098110265	-9.270623974624431	37.46128570727389	0.653822777622222	0	0	0	-2.608469750977816	-1.781929348939154	0.2253306954025589	68.27438738959738	4.868079198762005	2.879761261112265	24.37063430729119	113.4503654508569	0	0	35.90469963015695	-10.50574209651352	-4.613842928918626	21.98948977190257	125.3493914397347	0	0
32.88333333333275	-2.70344186599288	-3.421524504523418	31.61219971958976	0	0.9399999999999999	0	33.87680189314811	-9.7690758757675	-9.271141432396083	37.46528311612271	0.6538925455681823	0	0	0	33.87680189314811	-9.7690758757675	-9.271141432396083	37.46528311612271	0.6538925455681823	0	0	0	-2.593159031743223	-1.765221728728061	0.2784456733916467	68.03052405134397	4.064342256349621	2.389349678940203	24.53789452399125	113.584310885527	0	0	35.82711974379285	-10.54194255003078	-4.733089310729102	22.02366464835961	125.3925872906618	0	0
32.89999999999942	-2.710687329406381	-3.385632544866042	31.42727863155413	0	0.9399999999999999	0	33.88050103224921	-9.769338671049661	-9.271673307957583	37.46939358238431	0.6539642867382395	0	0	0	33.88050103224921	-9.769338671049661	-9.271673307957583	37.46939358238431	0.6539642867382395	0	0	0	-2.578693598719309	-1.734514680633449	0.3276874484322839	67.85717165975336	3.310558000285597	1.867317332687195	24.52475427889037	113.7291037357602	0	0	35.74486916966362	-10.58119116974491	-4.826624192016982	22.05765951677633	125.3146357365044	0	0
32.91666666666608	-2.714528344497194	-3.351329534582131	31.2536259468798	0	0.9399999999999999	0	33.88403748864843	-9.769589664358296	-9.272181534844627	37.47332430902161	0.654032890860056	0	0	0	33.88403748864843	-9.769589664358296	-9.272181534844627	37.47332430902161	0.654032890860056	0	0	0	-2.562102451645248	-1.706973520842488	0.3782777413037242	67.75572332046143	2.583560760712505	1.364671242351238	24.41965408212764	113.8487824117273	0	0	35.69136990715849	-10.60582094288854	-4.965631673062981	22.04655475274042	125.3576627891091	0	0
32.93333333333275	-2.735820700470889	-3.327654715895313	31.13522956684153	0	0.9399999999999999	0	33.88675198214607	-9.769781676956889	-9.272570829092968	37.47634894790159	0.6540856807671956	0	0	0	33.88675198214607	-9.769781676956889	-9.272570829092968	37.47634894790159	0.6540856807671956	0	0	0	-2.567867746686912	-1.676371114605394	0.3894986119429311	67.57151004592887	2.277657169606115	1.074167316459043	24.69113227594592	114.1080970285671	0	0	35.67640524436838	-10.6302127184777	-5.137154569179152	22.04519885364021	125.4305835454764	0	0
32.94999999999941	-2.713383355857243	-3.316939055136409	31.07579785266092	0	0.9399999999999999	0	33.88907388422253	-9.769945800538299	-9.27290369483746	37.47893666195745	0.6541308448975705	0	0	0	33.88907388422253	-9.769945800538299	-9.27290369483746	37.47893666195745	0.6541308448975705	0	0	0	-2.540685356121263	-1.682675718537345	0.4408122331754938	67.60761954657563	1.880753563362332	0.8830851991695536	24.3476207657187	114.0565432027473	0	0	35.61625525391153	-10.643771677599	-5.148541359655539	22.03320638900869	125.4536239699146	0	0
32.96666666666608	-2.732113159142103	-3.277742041762151	30.90793435624786	0	0.9399999999999999	0	33.89271457552177	-9.770203639575993	-9.27342633459403	37.48298501730527	0.6542015020276806	0	0	0	33.89271457552177	-9.770203639575993	-9.27342633459403	37.48298501730527	0.6542015020276806	0	0	0	-2.534582331798097	-1.643127874274637	0.492262077376765	67.53237509183634	1.184022143791657	0.4380613487693913	24.2512068115447	114.3414196904886	0	0	35.51663835726694	-10.68321682544384	-5.337669472604445	22.08214551037626	125.4832048585209	0	0
32.98333333333274	-2.735943300875319	-3.240436808275088	30.74463722432229	0	0.9399999999999999	0	33.89570707485115	-9.770415295371174	-9.2738556052478	37.48631471105659	0.6542596161467242	0	0	0	33.89570707485115	-9.770415295371174	-9.2738556052478	37.48631471105659	0.6542596161467242	0	0	0	-2.517150732925012	-1.612047776111057	0.5330157113760678	67.42977732706366	0.5326589448747849	0.01602576212802862	24.16794090000113	114.5792352012231	0	0	35.42363324385517	-10.73729823417321	-5.471465972813379	22.07486807879048	125.4986485653624	0	0
32.99999999999941	-2.740794881249377	-3.208414675814107	30.59113994749344	0	0.9399999999999999	0	33.89932645342009	-9.770671341533857	-9.27437493250906	37.49033886414922	0.6543298508677949	0	0	0	33.89932645342009	-9.770671341533857	-9.27437493250906	37.49033886414922	0.6543298508677949	0	0	0	-2.503729445123106	-1.584494758051809	0.5688280285885566	67.33583521156405	-0.06629753078641612	-0.3688345844469009	24.08165101701968	114.6398333228931	0	0	35.38687372267832	-10.77981343432705	-5.607333609917131	22.05517120980755	125.5223455008211	0	0
33.01666666666608	-2.757236373167932	-3.178249870632893	30.49241287706574	0	0.9399999999999999	0	33.90197505064584	-9.770858113269259	-9.274754216777659	37.4932906016591	0.6543813684059971	0	0	0	33.90197505064584	-9.770858113269259	-9.274754216777659	37.4932906016591	0.6543813684059971	0	0	0	-2.5028132657942	-1.550175523579408	0.570852465263704	67.18526505208096	-0.2532545609560586	-0.6345562008364605	24.27508676802025	114.9057702902159	0	0	35.37042627508769	-10.7753491192727	-5.726187950458875	22.05116282364387	125.5212520424128	0	0
33.03333333333274	-2.723322570018663	-3.162206211453662	30.31859423909269	0	0.9399999999999999	0	33.90420035753097	-9.771014717663915	-9.275072493781114	37.49577400144906	0.6544247119089751	0	0	0	33.90420035753097	-9.771014717663915	-9.275072493781114	37.49577400144906	0.6544247119089751	0	0	0	-2.462980936316409	-1.556991940846949	0.6212237382545929	67.25385248691067	-0.844425453749718	-0.9160464132853795	23.77923391604633	114.2473671756047	0	0	35.20643155218495	-10.89780096840419	-5.847914181333061	22.09272081878238	125.558106523497	0	0
33.04999999999941	-2.766210629450721	-3.123447802695464	30.24138320996265	0	0.9399999999999999	0	33.90621446526438	-9.771156130644396	-9.275360149700257	37.49802558837166	0.6544640095141694	0	0	0	33.90621446526438	-9.771156130644396	-9.275360149700257	37.49802558837166	0.6544640095141694	0	0	0	-2.479673815253795	-1.50342438303384	0.6460348665792689	67.18962314863022	-1.083015519875027	-1.198464614982302	23.91713952741662	114.5271662617083	0	0	35.17629752598592	-10.89297216341405	-5.968554660379906	22.11623644375705	125.6051302313044	0	0
